# Blender 4.3.2
# www.blender.org
mtllib deformed_control_points.mtl
o control_points
v -0.974935 -0.368201 0.996522
v 1.025060 7.601000 1.532439
v -0.974935 1.193520 0.996522
v -0.974935 1.193520 -0.336811
v 1.025060 4.316960 0.996523
v -0.974935 4.316960 0.996523
v 1.025060 2.755240 0.996523
v 4.337728 7.030144 0.401468
v -1.554250 8.132570 -0.454548
v -0.974935 4.316960 0.329856
v 1.025060 12.639700 0.329856
v -0.974935 4.316960 -0.336810
v 0.358398 6.341620 -1.003480
v 4.565120 5.688123 -0.769562
v -0.974935 2.755240 -0.336811
v -0.974935 1.193520 -1.003480
v -0.974935 2.755240 -1.003480
v -0.974935 -0.368201 -1.003480
v -0.308268 4.991850 -1.003480
v -0.974935 4.316960 -1.003480
v 1.025060 2.755240 -0.336811
v -0.974935 7.601000 -1.003481
v -0.974935 2.755240 0.329856
v -0.974935 2.755240 0.996523
v 0.358398 6.971310 1.353800
v -0.974935 1.193520 0.329856
v -2.108750 8.780610 0.837709
v -0.974935 -0.368201 -0.336811
v 1.025060 -0.368201 0.329855
v -2.482660 4.980130 0.972800
v -0.974935 -0.368201 0.329855
v -3.232050 7.651850 0.878785
v -0.308268 4.316960 -1.003480
v 0.358398 4.316960 -1.003480
v 1.025060 4.991850 -1.003480
v 1.025060 9.700360 -0.158170
v 0.358398 2.755240 0.996523
v 1.025060 4.316960 -1.003480
v -0.308268 2.755240 -1.003480
v 1.025060 1.193520 0.329856
v 0.358398 2.755240 -1.003480
v -1.925930 5.502160 0.972800
v 1.025060 2.755240 -1.003480
v -0.974935 6.341620 0.996523
v -0.974935 11.170000 0.329856
v 1.025060 9.700360 1.353799
v -0.974935 5.666730 -1.003480
v 0.358398 1.193520 -1.003480
v -3.232050 7.651850 0.212118
v 1.025060 1.193520 -1.003480
v -1.728800 4.648540 -1.015340
v 1.025060 -0.368201 -1.003480
v -0.308268 1.193520 -1.003480
v 3.547332 3.790644 0.913383
v -0.308268 5.666730 -1.003480
v -0.308268 -0.368201 0.329855
v 0.358398 -0.368201 -1.003480
v 1.025060 8.230690 -0.158171
v -0.308268 -0.368201 -1.003480
v 1.025060 5.666730 -0.336810
v 1.025060 4.316960 -0.336810
v 1.025060 12.639700 -1.003481
v -0.308268 1.193520 0.996522
v 1.025060 4.316960 0.329856
v 1.025060 2.755240 0.329856
v 0.358398 5.666730 -1.003480
v 1.025060 1.193520 0.996522
v -0.308268 -0.368201 -0.336811
v 0.358398 1.193520 0.996522
v 1.025060 -0.368201 0.996522
v 1.025060 1.193520 -0.336811
v -0.308268 6.341620 -1.003480
v -0.308268 -0.368201 0.996522
v 1.025060 -0.368201 -0.336811
v 0.358398 4.316960 0.996523
v -0.308268 4.316960 0.996523
v -1.548220 8.759960 -0.495624
v 0.358398 4.991850 -1.003480
v 0.358398 -0.368201 0.329855
v -0.308268 2.755240 0.996523
v 0.358398 -0.368201 0.996522
v 0.358398 -0.368201 -0.336811
v -0.308268 7.601000 1.175159
v -0.974935 4.991850 -1.003480
v -0.974935 6.341620 -1.003480
v 1.025060 5.666730 -1.003480
v -0.974935 7.601000 -0.336811
v 0.358398 8.230690 -1.003481
v 1.025060 6.341620 -1.003480
v 1.862417 6.268338 -0.186651
v -1.560290 7.505190 0.919861
v -0.308268 6.341620 1.175160
v 0.358398 6.341620 1.353800
v -0.974935 7.601000 0.996522
v 1.025060 6.341620 1.532439
v -0.308268 11.170000 -1.003481
v -0.308268 6.971310 1.175160
v 1.025060 6.971310 1.532439
v 0.358398 7.601000 1.353799
v 1.025060 8.230690 1.532439
v -0.974935 6.971310 0.996522
v 0.358398 8.230690 1.353799
v -0.308268 8.230690 1.175159
v -0.974935 8.230690 0.996522
v 1.406710 6.381981 0.672897
v 1.025060 4.991850 0.329856
v 1.025060 4.991850 -0.336810
v 1.025060 4.991840 1.175160
v 1.025060 5.666730 0.508497
v 1.025060 6.341620 -0.158170
v 1.025060 5.666730 1.353800
v 1.025060 6.341620 0.687138
v 1.438978 4.886073 0.137543
v -0.974935 6.971310 0.329855
v -0.974935 4.991850 0.996523
v -0.974935 5.666730 0.996523
v -1.172070 5.170570 0.984661
v 1.860418 7.398965 -1.004865
v -1.172070 5.845460 0.984661
v -1.172070 6.520350 0.984661
v -1.369200 6.024180 0.972800
v -1.369200 6.699070 0.972800
v -1.566330 6.877800 0.960937
v 1.025060 11.170000 -0.158170
v -1.728800 4.648540 0.984661
v -3.229810 8.821910 -0.495624
v -2.123060 6.355770 0.960938
v -2.679790 5.833740 0.960938
v -3.236520 5.311720 0.960938
v -0.308268 4.991840 1.175160
v 1.406710 6.381981 -1.017718
v -3.232050 7.651850 -1.121211
v 0.358398 4.991840 1.175160
v 0.358398 5.666730 1.353800
v -0.308268 5.666730 1.175160
v -2.671520 7.631200 0.878785
v 1.025060 8.230690 0.687137
v 0.358398 12.639700 -0.336810
v 1.025060 8.230690 -1.003481
v 2.845836 6.133123 -1.033345
v 1.025060 9.700360 0.687137
v 1.025060 9.700360 -1.003481
v 1.025060 11.170000 -1.003481
v 1.025060 11.170000 0.508497
v 1.865406 8.244817 0.544996
v 1.025060 12.639700 -0.336810
v 1.025060 11.170000 1.175159
v 1.025060 12.639700 0.996523
v 2.989138 4.793512 -0.524074
v 0.358398 6.971310 -1.003480
v -0.308268 6.971310 -1.003480
v -0.974935 6.971310 -1.003480
v 4.327136 6.966215 -1.007638
v -0.308268 7.601000 -1.003481
v -0.974935 8.230690 -1.003481
v 2.275588 5.104612 -0.503809
v -2.677560 7.003810 -1.080140
v 1.025060 6.971310 -1.003480
v 3.536904 3.829147 -0.161328
v -0.308268 12.639700 0.329856
v 0.358398 7.601000 -1.003481
v -0.308268 8.230690 -1.003481
v 1.025060 7.601000 -1.003481
v 1.654820 7.698970 1.638619
v 1.461283 3.885633 0.097013
v 1.654820 7.069280 1.638620
v 1.474647 4.875904 -0.232614
v 1.383815 6.388649 1.384892
v -1.728800 4.648540 -0.348672
v 2.284570 7.167260 1.744799
v 1.830032 6.303349 1.237341
v 3.286861 7.957012 -1.006252
v 2.208260 6.087126 1.089789
v 1.865406 8.244817 1.390303
v 1.705390 7.793050 1.750209
v 2.865459 6.210577 1.095201
v 3.263805 8.017572 1.248164
v -3.234290 6.481780 -0.413471
v 3.604241 6.636343 1.100612
v 4.343024 7.062109 1.106023
v -2.673750 6.461130 0.919861
v -0.974935 6.341620 -0.336810
v -0.974935 6.341620 0.329856
v 3.275333 7.987291 -0.301698
v -0.974935 6.971310 -0.336811
v -0.974935 7.601000 0.329855
v -0.974935 8.230690 0.329855
v -0.974935 8.230690 -0.336811
v 0.358398 12.639700 0.329856
v 0.358398 12.639700 -1.003481
v 2.255685 5.034432 0.948501
v -0.308268 12.639700 -0.336810
v -1.554250 8.132570 0.212118
v -0.308268 12.639700 -1.003481
v -0.974935 12.639700 -1.003481
v 3.557893 3.859730 -0.531486
v 0.358398 12.639700 0.996523
v -0.974935 12.639700 -0.336810
v -0.308268 12.639700 0.996523
v -0.974935 12.639700 0.329856
v -0.974935 12.639700 0.996523
v -0.974935 9.700360 -0.336811
v -0.974935 9.700360 0.329856
v -1.554250 8.132570 -1.121211
v -2.482660 4.980130 0.306133
v -0.974935 9.700360 0.996522
v -3.229810 8.821910 0.171042
v -0.974935 11.170000 0.996523
v -0.974935 9.700360 -1.003481
v -0.974935 11.170000 -0.336811
v -0.974935 11.170000 -1.003481
v -0.308268 9.700360 0.996522
v 0.358398 9.700360 1.175159
v -1.554250 8.132570 0.878785
v 0.358398 11.170000 0.996523
v -0.308268 11.170000 0.996523
v 4.602868 5.675227 0.305149
v 0.358398 9.700360 -1.003481
v -0.308268 9.700360 -1.003481
v -1.728800 4.648540 0.317995
v 0.358398 11.170000 -1.003481
v -2.117020 6.983160 0.919861
v 1.414460 4.396021 0.487435
v -2.110980 7.610550 0.878785
v -1.548220 8.759960 0.837709
v -3.234290 6.481780 0.919861
v -2.669280 8.801260 0.837709
v -3.229810 8.821910 0.837709
v -1.728800 5.998320 -1.015340
v -1.728800 5.323430 -1.015340
v -2.675320 8.173880 -1.121211
v -2.482660 5.655020 -1.027200
v -2.482660 4.980130 -1.027200
v -3.236520 5.311720 -1.039060
v -1.172070 6.520350 -1.015340
v -2.120820 7.525840 -1.080141
v -1.925930 6.177040 -1.027200
v -2.679790 5.833740 -1.039060
v -1.369200 6.699070 -1.027200
v -2.123060 6.355770 -1.039060
v -1.566330 6.877800 -1.039060
v -2.482660 4.980130 -0.360534
v -3.236520 5.311720 0.294271
v -3.236520 5.311720 -0.372395
v -1.172070 6.520350 0.317995
v 1.190880 7.793020 -0.498793
v -1.172070 6.520350 -0.348673
v -1.369200 6.699070 -0.360535
v -1.369200 6.699070 0.306132
v -1.566330 6.877800 -0.372396
v -1.566330 6.877800 0.294270
v -3.229810 8.821910 -1.162291
v -2.669280 8.801260 -0.495624
v -2.669280 8.801260 0.171042
v -2.108750 8.780610 0.171042
v -2.669280 8.801260 -1.162291
v -2.108750 8.780610 -0.495624
v -1.548220 8.759960 0.171042
v 3.726779 5.826894 -0.782415
v -2.108750 8.780610 -1.162291
v -1.548220 8.759960 -1.162291
v -1.560290 7.505190 0.253194
v -1.560290 7.505190 -0.413472
v -1.560290 7.505190 -1.080141
v -3.234290 6.481780 -1.080140
v -2.114790 8.153220 -1.121211
v -3.234290 6.481780 0.253195
v -3.232050 7.651850 -0.454548
v 1.846224 6.285843 0.525344
v 2.231155 6.080457 0.377793
v 2.254050 6.073789 -0.334203
v 2.276945 6.067121 -1.046201
v 2.476885 5.628587 0.648988
v 2.457062 5.615333 -0.063008
v 2.437238 5.602080 -0.775004
v 1.496950 3.875465 -0.273144
v 2.297663 5.095594 0.208187
v 2.490494 5.594083 1.019144
v 2.276674 5.065012 0.578344
v 1.403309 4.896241 0.507700
v 1.367640 4.906410 0.877857
v 1.865406 8.244817 -0.300312
v 3.263804 8.017572 0.402855
v 1.401082 3.405752 0.817063
v 1.890529 8.224357 -1.004865
v 4.332433 6.998178 -0.303085
v 1.107970 7.067320 -0.751136
v 1.107970 7.697010 -0.751136
v 3.586486 6.549669 -1.020492
v 1.862417 6.268338 -1.031960
v 1.406710 6.381981 -0.172411
v 1.450130 4.385853 0.117278
v 1.485799 4.375683 -0.252879
v 4.627008 5.696842 1.009702
v 1.508101 3.375244 -0.293410
v 1.378788 4.406191 0.857592
v 1.425608 3.895802 0.467170
v 1.472429 3.385414 0.076748
v 1.389935 3.905972 0.837327
v 1.436756 3.395583 0.446905
v 2.888439 5.965665 -0.795269
v 3.492620 4.618990 -0.544339
v 4.578731 5.653615 -0.399404
v 3.515913 3.798563 0.208829
v 4.236594 5.383916 1.029968
v 3.393939 5.514329 1.024556
v 2.733621 4.523444 0.953912
v 3.191134 4.172242 0.933647
o control_points.001
v -0.974935 -0.368201 0.996522
v 1.025060 7.601000 1.532438
v -0.974935 1.193520 0.996522
v -0.974935 1.193520 -0.336811
v 1.025060 4.316960 0.996523
v -0.974935 4.316960 0.996523
v 1.025060 2.755240 0.996523
v -1.554250 8.132570 -0.454549
v -0.974935 4.316960 0.329856
v 1.025060 12.639700 0.329855
v -0.974935 4.316960 -0.336810
v -0.974935 1.193520 -1.003480
v 0.358398 4.991850 -1.003480
v -0.974935 2.755240 -0.336811
v -0.974935 2.755240 -1.003480
v -0.974935 -0.368201 -1.003480
v -0.974935 -0.368201 0.329855
v -0.974935 4.316960 -1.003480
v 1.025060 4.991850 -1.003480
v 1.025060 2.755240 -0.336811
v -0.974935 7.601000 -1.003482
v -0.974935 2.755240 0.329856
v -0.974935 2.755240 0.996523
v 0.358398 6.971310 1.353800
v -0.974935 1.193520 0.329856
v 0.358398 2.755240 -1.003480
v -2.108750 8.780610 0.837708
v -0.974935 6.971310 0.329854
v -0.974935 -0.368201 -0.336811
v -1.566330 6.877800 0.960936
v 1.025060 5.666730 -1.003480
v -3.232050 7.651850 0.878784
v -0.308268 4.316960 -1.003480
v -0.974935 7.601000 0.996521
v 1.025060 6.341620 1.532439
v -0.308268 1.193520 0.996522
v 0.358398 4.316960 -1.003480
v 0.358398 1.193520 -1.003480
v 0.358398 2.755240 0.996523
v 1.025060 4.316960 -1.003480
v -0.308268 2.755240 -1.003480
v 1.025060 2.755240 -1.003480
v -3.232050 7.651850 0.212117
v 1.025060 1.193520 -1.003480
v -1.728800 4.648540 -1.015340
v 1.025060 -0.368201 -1.003480
v -0.308268 1.193520 -1.003480
v -0.308268 -0.368201 0.329855
v 0.358398 -0.368201 -1.003480
v 1.025060 8.230690 -0.158172
v -0.308268 -0.368201 -1.003480
v 1.025060 4.316960 -0.336810
v 1.025060 4.316960 0.329856
v 1.025060 2.755240 0.329856
v 3.275333 7.987291 -0.301698
v 1.025060 1.193520 0.329856
v -0.974935 4.991850 -1.003480
v 1.025060 1.193520 0.996522
v -0.308268 -0.368201 -0.336811
v -0.974935 6.971310 -0.336812
v 1.025060 5.666730 -0.336810
v 1.025060 -0.368201 0.996522
v 1.025060 1.193520 -0.336811
v 1.025060 -0.368201 0.329855
v -0.308268 -0.368201 0.996522
v 1.025060 -0.368201 -0.336811
v 0.358398 1.193520 0.996522
v 0.358398 4.316960 0.996523
v -0.308268 4.316960 0.996523
v -2.123060 6.355770 -1.039060
v -0.308268 2.755240 0.996523
v 0.358398 -0.368201 0.996522
v 0.358398 -0.368201 -0.336811
v 0.358398 -0.368201 0.329855
v -0.308268 4.991850 -1.003480
v -0.308268 5.666730 -1.003480
v -0.974935 5.666730 -1.003480
v -0.974935 6.341620 -1.003480
v 0.358398 5.666730 -1.003480
v -0.308268 6.341620 -1.003480
v 0.358398 6.341620 -1.003480
v -0.974935 7.601000 -0.336812
v 0.358398 8.230690 -1.003482
v 1.025060 6.341620 -1.003480
v -3.234290 6.481780 -1.080140
v -0.974935 6.341620 0.996523
v 1.862417 6.268338 -0.186651
v -1.560290 7.505190 0.919860
v -0.308268 6.341620 1.175160
v 0.358398 6.341620 1.353800
v -0.308268 6.971310 1.175160
v 1.025060 6.971310 1.532439
v 0.358398 7.601000 1.353798
v 2.416431 6.537619 1.237341
v 1.025060 8.230690 1.532438
v -0.974935 6.971310 0.996521
v -0.308268 7.601000 1.175158
v 0.358398 8.230690 1.353798
v -0.308268 8.230690 1.175158
v -0.974935 8.230690 0.996521
v 1.025060 4.991850 0.329856
v 1.025060 4.991850 -0.336810
v 0.358398 9.700360 1.175158
v 1.025060 4.991840 1.175160
v 4.565120 5.688123 -0.769562
v 1.025060 5.666730 0.508497
v 1.025060 6.341620 -0.158170
v 3.604241 6.636343 1.100612
v 1.025060 5.666730 1.353800
v 1.025060 6.341620 0.687138
v -0.974935 4.991850 0.996523
v -3.229810 8.821910 -0.495625
v -2.123060 6.355770 0.960938
v -0.974935 5.666730 0.996523
v -1.172070 5.170570 0.984661
v -1.172070 5.845460 0.984661
v -1.728800 5.998320 -1.015340
v -1.172070 6.520350 0.984661
v -1.369200 6.024180 0.972800
v -1.369200 6.699070 0.972800
v 1.025060 11.170000 -0.158171
v -1.728800 4.648540 0.984661
v -1.548220 8.759960 0.171041
v -1.925930 5.502160 0.972800
v 1.414460 4.396021 0.487435
v -2.110980 7.610550 0.878784
v -0.974935 9.700360 0.996521
v -2.482660 4.980130 0.972800
v 1.436756 3.395583 0.446905
v -2.679790 5.833740 0.960938
v -3.236520 5.311720 0.960938
v -0.308268 4.991840 1.175160
v -3.232050 7.651850 -1.121212
v 0.358398 4.991840 1.175160
v 0.358398 5.666730 1.353800
v -0.308268 5.666730 1.175160
v -0.974935 6.341620 0.329856
v 1.025060 8.230690 0.687136
v 0.358398 12.639700 -0.336811
v 1.025060 8.230690 -1.003482
v 1.025060 9.700360 0.687136
v 1.025060 9.700360 -0.158171
v -2.669280 8.801260 -0.495625
v 1.025060 9.700360 -1.003482
v 1.025060 11.170000 -1.003482
v 1.025060 12.639700 -1.003482
v 2.888439 5.965665 -0.795269
v 1.025060 9.700360 1.353798
v 1.025060 11.170000 0.508496
v 1.865406 8.244817 0.544996
v 1.025060 12.639700 -0.336811
v 1.025060 11.170000 1.175158
v 1.025060 12.639700 0.996522
v 2.989138 4.793512 -0.524074
v 0.358398 6.971310 -1.003480
v -0.308268 6.971310 -1.003480
v -0.308268 11.170000 -1.003482
v -0.974935 6.971310 -1.003480
v 4.327136 6.966215 -1.007638
v -0.308268 7.601000 -1.003482
v 1.830032 6.303349 1.237341
v -0.974935 8.230690 -1.003482
v 1.025060 6.971310 -1.003480
v -0.308268 12.639700 0.329855
v 0.358398 7.601000 -1.003482
v -0.308268 8.230690 -1.003482
v 1.025060 7.601000 -1.003482
v 1.868462 7.392135 1.384892
v 1.461283 3.885633 0.097013
v 1.442403 6.928471 1.384892
v 1.474647 4.875904 -0.232614
v 1.383815 6.388649 1.384892
v 3.286861 7.957012 -1.006252
v 2.208260 6.087126 1.089789
v 1.865406 8.244817 1.390303
v -2.120820 7.525840 -1.080142
v 2.840117 7.277595 1.242751
v 2.865459 6.210577 1.095201
v 3.263805 8.017572 1.248163
v 1.890529 8.224357 -1.004865
v 4.343024 7.062109 1.106022
v -0.974935 6.341620 -0.336810
v -0.974935 7.601000 0.329854
v -0.974935 8.230690 0.329854
v -0.974935 8.230690 -0.336812
v 0.358398 12.639700 0.329855
v 0.358398 12.639700 -1.003482
v 2.255685 5.034432 0.948501
v -0.308268 12.639700 -0.336811
v -1.554250 8.132570 0.212117
v -2.669280 8.801260 -1.162292
v -0.308268 12.639700 -1.003482
v -0.974935 12.639700 -1.003482
v 3.557893 3.859730 -0.531486
v 0.358398 12.639700 0.996522
v -0.974935 12.639700 -0.336811
v -0.308268 12.639700 0.996522
v -0.974935 12.639700 0.329855
v -0.974935 12.639700 0.996522
v -2.675320 8.173880 -1.121212
v -2.482660 5.655020 -1.027200
v -0.974935 9.700360 -0.336812
v -0.974935 9.700360 0.329855
v -0.974935 11.170000 0.329855
v -3.229810 8.821910 0.171041
v -0.974935 11.170000 0.996522
v -0.974935 9.700360 -1.003482
v -0.974935 11.170000 -0.336812
v -0.974935 11.170000 -1.003482
v -0.308268 9.700360 0.996521
v -1.554250 8.132570 0.878784
v 0.358398 11.170000 0.996522
v -0.308268 11.170000 0.996522
v 0.358398 9.700360 -1.003482
v -0.308268 9.700360 -1.003482
v -1.728800 4.648540 0.317995
v 0.358398 11.170000 -1.003482
v -2.673750 6.461130 0.919861
v -2.117020 6.983160 0.919860
v -1.548220 8.759960 0.837708
v -3.234290 6.481780 0.919861
v -2.671520 7.631200 0.878784
v -2.669280 8.801260 0.837708
v -3.229810 8.821910 0.837708
v -1.728800 5.323430 -1.015340
v -2.482660 4.980130 -1.027200
v -3.236520 5.311720 -1.039060
v -1.172070 6.520350 -1.015340
v -1.925930 6.177040 -1.027200
v -2.679790 5.833740 -1.039060
v -1.369200 6.699070 -1.027200
v -1.566330 6.877800 -1.039060
v -1.728800 4.648540 -0.348672
v -2.482660 4.980130 0.306133
v -2.482660 4.980130 -0.360534
v -3.236520 5.311720 0.294271
v -3.236520 5.311720 -0.372395
v -1.172070 6.520350 0.317995
v -1.172070 6.520350 -0.348673
v -1.369200 6.699070 -0.360536
v -1.369200 6.699070 0.306131
v -1.566330 6.877800 -0.372396
v -1.566330 6.877800 0.294270
v -3.229810 8.821910 -1.162292
v -2.669280 8.801260 0.171041
v -2.108750 8.780610 0.171041
v -2.108750 8.780610 -0.495625
v 3.726779 5.826894 -0.782415
v -2.108750 8.780610 -1.162292
v -1.548220 8.759960 -0.495625
v -1.548220 8.759960 -1.162292
v -1.560290 7.505190 0.253193
v -1.560290 7.505190 -0.413473
v -1.560290 7.505190 -1.080142
v -1.554250 8.132570 -1.121212
v -2.677560 7.003810 -1.080140
v -2.114790 8.153220 -1.121212
v -3.234290 6.481780 -0.413471
v -3.234290 6.481780 0.253195
v -3.232050 7.651850 -0.454549
v 2.231155 6.080457 0.377793
v 2.254050 6.073789 -0.334203
v 2.276945 6.067121 -1.046201
v 2.476885 5.628587 0.648988
v 2.457062 5.615333 -0.063008
v 2.437238 5.602080 -0.775004
v 1.496950 3.875465 -0.273144
v 2.297663 5.095594 0.208187
v 2.275588 5.104612 -0.503809
v 2.490494 5.594083 1.019145
v 2.276674 5.065012 0.578344
v 1.438978 4.886073 0.137543
v 1.403309 4.896241 0.507700
v 1.367640 4.906410 0.877857
v 1.865406 8.244817 -0.300312
v 3.263804 8.017572 0.402855
v 4.337728 7.030144 0.401468
v 4.332433 6.998178 -0.303085
v 1.107974 7.067322 -1.004864
v 1.860418 7.398965 -1.004865
v 2.805530 7.280428 -1.006252
v 1.406710 6.381981 -1.017718
v 1.584608 6.925566 -1.019105
v 3.586486 6.549669 -1.020492
v 1.862417 6.268338 -1.031960
v 2.845836 6.133123 -1.033345
v 1.406710 6.381981 0.672897
v 1.406710 6.381981 -0.172411
v 1.846224 6.285843 0.525345
v 1.450130 4.385853 0.117278
v 1.485799 4.375683 -0.252879
v 1.508101 3.375244 -0.293410
v 1.378788 4.406191 0.857592
v 1.425608 3.895802 0.467170
v 1.472429 3.385414 0.076748
v 1.389935 3.905972 0.837327
v 1.401082 3.405752 0.817063
v 3.492620 4.618990 -0.544339
v 4.578731 5.653615 -0.399404
v 4.602868 5.675227 0.305149
v 4.627008 5.696842 1.009703
v 3.515913 3.798563 0.208829
v 3.547332 3.790644 0.913383
v 3.536904 3.829147 -0.161328
v 4.236594 5.383916 1.029968
v 3.393939 5.514329 1.024556
v 2.733621 4.523444 0.953912
v 3.191134 4.172242 0.933647
o cage
v -0.974935 -0.368201 0.996522
v -0.974935 4.316958 0.996523
v -0.974935 -0.368201 -1.003478
v -0.974935 4.316958 -1.003477
v 1.025065 -0.368201 0.996522
v 1.025065 4.316958 0.996523
v 1.025065 -0.368201 -1.003478
v 1.025065 4.316958 -1.003477
v -0.974935 6.341620 0.996523
v -0.974935 6.341620 -1.003477
v 1.025065 6.341620 -1.003477
v 1.025065 6.341619 1.532444
v -0.974935 8.230688 0.996522
v -0.974935 8.230688 -1.003478
v 1.025065 8.230688 -1.003478
v 1.025065 8.230688 1.532444
v -0.974935 12.639700 0.996523
v -0.974935 12.639700 -1.003477
v 1.025065 12.639700 -1.003477
v 1.025065 12.639700 0.996523
v -3.236523 5.311715 0.960938
v -3.236523 5.311715 -1.039062
v -1.566328 6.877796 0.960937
v -1.566328 6.877796 -1.039062
v -3.229814 8.821915 0.837709
v -3.229814 8.821915 -1.162291
v -1.548215 8.759963 0.837709
v -1.548215 8.759963 -1.162291
v 2.985631 6.629741 -0.285013
v 2.914328 6.635543 1.850976
v 1.273792 8.518725 -0.246451
v 1.176764 8.512922 1.867210
v 2.647348 11.572210 0.394845
v 2.904420 11.678680 1.475634
v 1.165244 11.564460 0.640000
v 1.422317 11.670940 1.720790
vn -1.0000 -0.0000 -0.0000
vn -0.0000 -0.0000 -1.0000
vn 1.0000 -0.0000 -0.0000
vn -0.0000 -0.0000 1.0000
vn -0.0000 -1.0000 -0.0000
vn -0.2588 -0.0000 0.9659
vn -0.0601 -0.0000 0.9982
vn -0.0107 0.0114 0.9999
vn -0.0000 -0.2559 0.9667
vn -0.1663 -0.0000 0.9861
vn -0.5407 -0.5062 0.6718
vn -0.0000 1.0000 -0.0000
vn -0.2571 0.1166 0.9593
vn -0.0617 0.0658 0.9959
vn 0.0013 0.0351 0.9994
vn 0.0157 -0.0000 -0.9999
vn 0.0306 -0.0326 -0.9990
vn -0.4026 -0.9154 -0.0000
vn 0.6717 0.7408 -0.0000
vn 0.0368 0.9993 -0.0000
vn 1.0000 -0.0096 -0.0000
vn 0.0329 -0.0351 -0.9988
vn -0.0024 -0.0653 -0.9979
vn -1.0000 0.0019 -0.0000
vn 0.9974 0.0637 0.0331
vn 0.9731 -0.0152 -0.2300
vn -0.8808 0.4734 -0.0000
vn -0.7149 0.6985 -0.0309
vn 0.9500 -0.0000 -0.3121
vn 0.2928 0.2840 -0.9130
vn 0.1454 -0.9894 -0.0000
vn 0.1524 -0.9883 0.0078
vn -0.0206 0.9954 -0.0932
vn 0.2852 0.2772 -0.9175
vn -0.1626 0.1235 -0.9789
vn -0.9961 0.0753 -0.0455
vn -0.9652 -0.1042 0.2398
vn 0.0893 0.0741 0.9932
vn 0.1629 0.0331 0.9861
s 0
f 618//1 620//1 619//1
f 618//1 619//1 617//1
f 620//2 624//2 623//2
f 620//2 623//2 619//2
f 624//3 622//3 621//3
f 624//3 621//3 623//3
f 622//4 618//4 617//4
f 622//4 617//4 621//4
f 617//5 619//5 623//5
f 617//5 623//5 621//5
f 624//2 620//2 626//2
f 624//2 626//2 627//2
f 625//6 628//6 632//6
f 625//6 632//6 629//6
f 622//3 624//3 627//3
f 622//3 627//3 628//3
f 618//7 625//7 639//7
f 618//8 639//8 637//8
f 618//9 622//9 628//9
f 618//6 628//6 625//6
f 632//3 631//3 635//3
f 632//3 635//3 636//3
f 627//2 626//2 630//2
f 627//2 630//2 631//2
f 632//10 628//10 646//10
f 632//11 646//11 648//11
f 626//1 625//1 629//1
f 626//1 629//1 630//1
f 636//12 635//12 634//12
f 636//12 634//12 633//12
f 630//1 629//1 633//1
f 630//1 633//1 634//1
f 629//13 632//13 636//13
f 629//4 636//4 633//4
f 631//2 630//2 634//2
f 631//2 634//2 635//2
f 637//14 639//14 643//14
f 637//15 643//15 641//15
f 626//16 620//16 638//16
f 626//17 638//17 640//17
f 620//18 618//18 637//18
f 620//18 637//18 638//18
f 625//19 626//19 640//19
f 625//19 640//19 639//19
f 642//20 641//20 643//20
f 642//20 643//20 644//20
f 639//21 640//21 644//21
f 639//21 644//21 643//21
f 640//22 638//22 642//22
f 640//23 642//23 644//23
f 638//24 637//24 641//24
f 638//24 641//24 642//24
f 646//25 645//25 649//25
f 646//26 649//26 650//26
f 631//27 632//27 648//27
f 631//28 648//28 647//28
f 627//29 631//29 647//29
f 627//30 647//30 645//30
f 628//31 627//31 645//31
f 628//32 645//32 646//32
f 650//33 649//33 651//33
f 650//33 651//33 652//33
f 645//34 647//34 651//34
f 645//35 651//35 649//35
f 647//36 648//36 652//36
f 647//37 652//37 651//37
f 648//38 646//38 650//38
f 648//39 650//39 652//39
